<svg width="18" height="18" viewBox="0 0 18 18" fill="none" xmlns="http://www.w3.org/2000/svg">
<path d="M15.6405 11.6573C15.529 11.475 15.2156 11.1913 14.4354 11.3264C14.0036 11.4007 13.5648 11.4345 13.1259 11.4142C11.503 11.3467 10.0333 10.624 9.00933 9.50969C8.10382 8.53042 7.54658 7.25399 7.53961 5.87626C7.53961 5.10635 7.69285 4.36346 8.0063 3.66108C8.31278 2.97897 8.09685 2.62103 7.94361 2.47245C7.78341 2.31712 7.40727 2.10101 6.66893 2.39816C3.82005 3.55978 2.05778 6.32875 2.26675 9.29357C2.47571 12.0828 4.4957 14.4668 7.17044 15.365C7.81127 15.5812 8.48692 15.7095 9.18347 15.7365C9.29491 15.7432 9.40636 15.75 9.51781 15.75C11.8512 15.75 14.0384 14.6829 15.4176 12.8662C15.8843 12.2381 15.7589 11.8397 15.6405 11.6573Z" fill="white"/>
</svg>
