<svg width="18" height="18" viewBox="0 0 18 18" fill="none" xmlns="http://www.w3.org/2000/svg">
<path opacity="0.3" d="M15.9367 6.86228C15.5692 6.27728 15.1492 5.75229 14.7142 5.27979L11.8867 8.10729C11.9767 8.38479 12.0292 8.68479 12.0292 8.99979C12.0292 10.6798 10.6717 12.0298 8.99922 12.0298C8.68422 12.0298 8.38422 11.9773 8.10672 11.8873L5.51172 14.4823C6.60672 15.0973 7.79172 15.4198 8.99922 15.4198C10.3342 15.4198 11.6317 15.0298 12.8167 14.3023C14.0017 13.5673 15.0667 12.4948 15.9367 11.1298C16.6867 9.95979 16.6867 8.03978 15.9367 6.86228Z" fill="#EEF0F2"/>
<path d="M10.5155 7.48498L7.48547 10.515C7.10297 10.125 6.85547 9.58498 6.85547 8.99998C6.85547 7.82248 7.81547 6.85498 9.00047 6.85498C9.58547 6.85498 10.1255 7.10248 10.5155 7.48498Z" fill="#E1E4E7"/>
<path opacity="0.3" d="M13.6875 4.31227L11.145 6.85477C10.5975 6.29977 9.84 5.96977 9 5.96977C7.32 5.96977 5.97 7.32727 5.97 8.99977C5.97 9.83977 6.3075 10.5973 6.855 11.1448L4.32 13.6873H4.3125C3.48 13.0123 2.715 12.1498 2.0625 11.1298C1.3125 9.95227 1.3125 8.03977 2.0625 6.86227C2.9325 5.49727 3.9975 4.42477 5.1825 3.68977C6.3675 2.96977 7.665 2.57227 9 2.57227C10.6725 2.57227 12.2925 3.18727 13.6875 4.31227Z" fill="#EEF0F2"/>
<path d="M11.1455 9.00006C11.1455 10.1776 10.1855 11.1451 9.00055 11.1451C8.95555 11.1451 8.91805 11.1451 8.87305 11.1301L11.1305 8.87256C11.1455 8.91756 11.1455 8.95506 11.1455 9.00006Z" fill="#E1E4E7"/>
<path d="M16.3277 1.67266C16.1027 1.44766 15.7352 1.44766 15.5102 1.67266L1.67266 15.5177C1.44766 15.7427 1.44766 16.1102 1.67266 16.3352C1.78516 16.4402 1.92766 16.5002 2.07766 16.5002C2.22766 16.5002 2.37016 16.4402 2.48266 16.3277L16.3277 2.48266C16.5602 2.25766 16.5602 1.89766 16.3277 1.67266Z" fill="#E1E4E7"/>
</svg>
