<svg width="16" height="16" viewBox="0 0 16 16" fill="none" xmlns="http://www.w3.org/2000/svg">
<path fill-rule="evenodd" clip-rule="evenodd" d="M7.99998 0.666748C8.17943 0.666748 8.35129 0.73909 8.47673 0.867418L15.1434 7.68793C15.3309 7.87977 15.3852 8.16531 15.2811 8.41256C15.177 8.65981 14.9349 8.82059 14.6666 8.82059H11.5238V14.0001C11.5238 14.3683 11.2253 14.6667 10.8571 14.6667H5.14283C4.77464 14.6667 4.47617 14.3683 4.47617 14.0001V8.82059H1.33331C1.06505 8.82059 0.822926 8.65981 0.718856 8.41256C0.614786 8.16531 0.669049 7.87977 0.85656 7.68793L7.52323 0.867418C7.64866 0.73909 7.82053 0.666748 7.99998 0.666748ZM2.91718 7.48726H5.14283C5.51102 7.48726 5.8095 7.78574 5.8095 8.15393V13.3334H10.1905V8.15393C10.1905 7.78574 10.4889 7.48726 10.8571 7.48726H13.0828L7.99998 2.28716L2.91718 7.48726Z" fill="#E1E4E7"/>
</svg>
