<svg width="20" height="20" viewBox="0 0 20 20" fill="none" xmlns="http://www.w3.org/2000/svg">
<path opacity="0.4" d="M18.3337 10.0002V14.1668C18.3337 16.6668 16.667 18.3335 14.167 18.3335H5.83366C3.33366 18.3335 1.66699 16.6668 1.66699 14.1668V10.0002C1.66699 7.7335 3.03366 6.15016 5.15866 5.88349C5.37533 5.85016 5.60033 5.8335 5.83366 5.8335H14.167C14.3837 5.8335 14.592 5.84182 14.792 5.87515C16.942 6.12515 18.3337 7.71683 18.3337 10.0002Z" fill="#E1E4E7"/>
<path d="M14.7915 5.87484C14.5915 5.8415 14.3832 5.83318 14.1665 5.83318H5.8332C5.59987 5.83318 5.37487 5.84984 5.1582 5.88318C5.27487 5.64984 5.44154 5.43318 5.64154 5.23318L8.34987 2.5165C9.49154 1.38317 11.3415 1.38317 12.4832 2.5165L13.9415 3.99152C14.4749 4.51652 14.7582 5.18317 14.7915 5.87484Z" fill="#E1E4E7"/>
<path d="M18.3337 10.4165H15.8337C14.917 10.4165 14.167 11.1665 14.167 12.0832C14.167 12.9998 14.917 13.7498 15.8337 13.7498H18.3337" fill="#E1E4E7"/>
</svg>
