<svg width="20" height="20" viewBox="0 0 20 20" fill="none" xmlns="http://www.w3.org/2000/svg">
<path opacity="0.4" d="M9.99935 18.3332C14.6017 18.3332 18.3327 14.6022 18.3327 9.99984C18.3327 5.39746 14.6017 1.6665 9.99935 1.6665C5.39698 1.6665 1.66602 5.39746 1.66602 9.99984C1.66602 14.6022 5.39698 18.3332 9.99935 18.3332Z" fill="#E1E4E7"/>
<path d="M10 8.74984C9.65833 8.74984 9.375 9.03317 9.375 9.37484L9.375 13.5415C9.375 13.8832 9.65833 14.1665 10 14.1665C10.3417 14.1665 10.625 13.8832 10.625 13.5415L10.625 9.37484C10.625 9.03317 10.3417 8.74984 10 8.74984Z" fill="#E1E4E7"/>
<path d="M9.23398 7.1916C9.27565 7.2916 9.33398 7.38327 9.40898 7.4666C9.49232 7.5416 9.58398 7.59993 9.68398 7.6416C9.88398 7.72493 10.1173 7.72493 10.3173 7.6416C10.4173 7.59993 10.509 7.5416 10.5923 7.4666C10.6673 7.38327 10.7257 7.2916 10.7673 7.1916C10.809 7.0916 10.834 6.98327 10.834 6.87493C10.834 6.7666 10.809 6.65827 10.7673 6.55827C10.7257 6.44994 10.6673 6.3666 10.5923 6.28327C10.509 6.20827 10.4173 6.14993 10.3173 6.10827C10.2173 6.0666 10.109 6.0416 10.0007 6.0416C9.89232 6.0416 9.78398 6.0666 9.68398 6.10827C9.58398 6.14993 9.49232 6.20827 9.40898 6.28327C9.33398 6.3666 9.27565 6.44994 9.23398 6.55827C9.19232 6.65827 9.16732 6.7666 9.16732 6.87493C9.16732 6.98327 9.19232 7.0916 9.23398 7.1916Z" fill="#E1E4E7"/>
</svg>
