<svg width="18" height="18" viewBox="0 0 18 18" fill="none" xmlns="http://www.w3.org/2000/svg">
<path d="M11.3154 8.81493C11.3154 10.1976 10.1981 11.3149 8.81542 11.3149C7.43274 11.3149 6.31543 10.1976 6.31543 8.81493C6.31543 7.43225 7.43274 6.31494 8.81542 6.31494C10.1981 6.31494 11.3154 7.43225 11.3154 8.81493Z" fill="#E1E4E7" stroke="black" stroke-width="0.8" stroke-linecap="round" stroke-linejoin="round"/>
<path opacity="0.3" d="M8.66112 14.6296C11.1864 14.6296 13.54 13.1416 15.1783 10.5662C15.8221 9.55755 15.8221 7.86209 15.1783 6.85341C13.54 4.27803 11.1864 2.79004 8.66112 2.79004C6.13585 2.79004 3.78224 4.27803 2.14402 6.85341C1.50017 7.86209 1.50017 9.55755 2.14402 10.5662C3.78224 13.1416 6.13585 14.6296 8.66112 14.6296Z" fill="#EEF0F2" stroke="#EEF0F2" stroke-width="1.5" stroke-linecap="round" stroke-linejoin="round"/>
</svg>
