<svg width="18" height="18" viewBox="0 0 18 18" fill="none" xmlns="http://www.w3.org/2000/svg">
<path d="M16.17 8.05492L15.15 6.86992C14.955 6.64492 14.7975 6.22492 14.7975 5.92492V4.64992C14.7975 3.85492 14.145 3.20242 13.35 3.20242H12.075C11.7825 3.20242 11.355 3.04492 11.13 2.84992L9.94497 1.82992C9.42747 1.38742 8.57997 1.38742 8.05497 1.82992L6.87747 2.85742C6.65247 3.04492 6.22497 3.20242 5.93247 3.20242H4.63497C3.83997 3.20242 3.18747 3.85492 3.18747 4.64992V5.93242C3.18747 6.22492 3.02997 6.64492 2.84247 6.86992L1.82997 8.06242C1.39497 8.57992 1.39497 9.41992 1.82997 9.93742L2.84247 11.1299C3.02997 11.3549 3.18747 11.7749 3.18747 12.0674V13.3499C3.18747 14.1449 3.83997 14.7974 4.63497 14.7974H5.93247C6.22497 14.7974 6.65247 14.9549 6.87747 15.1499L8.06247 16.1699C8.57997 16.6124 9.42747 16.6124 9.95247 16.1699L11.1375 15.1499C11.3625 14.9549 11.7825 14.7974 12.0825 14.7974H13.3575C14.1525 14.7974 14.805 14.1449 14.805 13.3499V12.0749C14.805 11.7824 14.9625 11.3549 15.1575 11.1299L16.1775 9.94492C16.6125 9.42742 16.6125 8.57242 16.17 8.05492ZM12.12 7.58242L8.49747 11.2049C8.39247 11.3099 8.24997 11.3699 8.09997 11.3699C7.94997 11.3699 7.80747 11.3099 7.70247 11.2049L5.88747 9.38992C5.66997 9.17242 5.66997 8.81242 5.88747 8.59492C6.10497 8.37742 6.46497 8.37742 6.68247 8.59492L8.09997 10.0124L11.325 6.78742C11.5425 6.56992 11.9025 6.56992 12.12 6.78742C12.3375 7.00492 12.3375 7.36492 12.12 7.58242Z" fill="#30DF7B"/>
</svg>
