<svg width="16" height="16" viewBox="0 0 16 16" fill="none" xmlns="http://www.w3.org/2000/svg">
<path fill-rule="evenodd" clip-rule="evenodd" d="M3.47974 1.38449C3.99702 1.2816 4.5332 1.33441 5.02047 1.53624C5.50774 1.73807 5.92422 2.07987 6.21723 2.5184C6.51025 2.95693 6.66665 3.4725 6.66665 3.99992V5.33325H9.33331V3.99992C9.33331 3.4725 9.48971 2.95693 9.78273 2.5184C10.0757 2.07987 10.4922 1.73807 10.9795 1.53624C11.4668 1.33441 12.0029 1.2816 12.5202 1.38449C13.0375 1.48739 13.5127 1.74136 13.8856 2.1143C14.2585 2.48724 14.5125 2.9624 14.6154 3.47968C14.7183 3.99696 14.6655 4.53314 14.4637 5.02041C14.2618 5.50768 13.92 5.92416 13.4815 6.21717C13.043 6.51019 12.5274 6.66659 12 6.66659H10.6666V9.33325H12C12.5274 9.33325 13.043 9.48965 13.4815 9.78267C13.92 10.0757 14.2618 10.4922 14.4637 10.9794C14.6655 11.4667 14.7183 12.0029 14.6154 12.5202C14.5125 13.0374 14.2585 13.5126 13.8856 13.8855C13.5127 14.2585 13.0375 14.5125 12.5202 14.6153C12.0029 14.7182 11.4668 14.6654 10.9795 14.4636C10.4922 14.2618 10.0757 13.92 9.78273 13.4814C9.48971 13.0429 9.33331 12.5273 9.33331 11.9999V10.6666H6.66665V11.9999C6.66665 12.5273 6.51025 13.0429 6.21723 13.4814C5.92422 13.92 5.50774 14.2618 5.02047 14.4636C4.5332 14.6654 3.99702 14.7182 3.47974 14.6153C2.96246 14.5125 2.4873 14.2585 2.11436 13.8855C1.74142 13.5126 1.48745 13.0374 1.38455 12.5202C1.28166 12.0029 1.33447 11.4667 1.5363 10.9794C1.73814 10.4922 2.07993 10.0757 2.51846 9.78267C2.95699 9.48965 3.47256 9.33325 3.99998 9.33325H5.33331V6.66659H3.99998C3.47256 6.66659 2.95699 6.51019 2.51846 6.21717C2.07993 5.92416 1.73814 5.50768 1.5363 5.02041C1.33447 4.53314 1.28166 3.99696 1.38455 3.47968C1.48745 2.9624 1.74142 2.48724 2.11436 2.1143C2.4873 1.74136 2.96246 1.48739 3.47974 1.38449ZM5.33331 5.33325V3.99992C5.33331 3.73621 5.25512 3.47843 5.10861 3.25916C4.9621 3.03989 4.75386 2.869 4.51023 2.76808C4.26659 2.66716 3.9985 2.64076 3.73986 2.69221C3.48122 2.74365 3.24364 2.87064 3.05717 3.05711C2.8707 3.24358 2.74371 3.48116 2.69227 3.7398C2.64082 3.99844 2.66722 4.26653 2.76814 4.51016C2.86906 4.7538 3.03995 4.96204 3.25922 5.10855C3.47849 5.25505 3.73627 5.33325 3.99998 5.33325H5.33331ZM6.66665 6.66659V9.33325H9.33331V6.66659H6.66665ZM5.33331 10.6666H3.99998C3.73627 10.6666 3.47849 10.7448 3.25922 10.8913C3.03995 11.0378 2.86906 11.246 2.76814 11.4897C2.66722 11.7333 2.64082 12.0014 2.69227 12.26C2.74371 12.5187 2.8707 12.7563 3.05717 12.9427C3.24364 13.1292 3.48122 13.2562 3.73986 13.3076C3.9985 13.3591 4.26659 13.3327 4.51023 13.2318C4.75386 13.1308 4.9621 12.9599 5.10861 12.7407C5.25512 12.5214 5.33331 12.2636 5.33331 11.9999V10.6666ZM10.6666 10.6666V11.9999C10.6666 12.2636 10.7448 12.5214 10.8914 12.7407C11.0379 12.9599 11.2461 13.1308 11.4897 13.2318C11.7334 13.3327 12.0015 13.3591 12.2601 13.3076C12.5187 13.2562 12.7563 13.1292 12.9428 12.9427C13.1293 12.7563 13.2562 12.5187 13.3077 12.26C13.3591 12.0014 13.3327 11.7333 13.2318 11.4897C13.1309 11.246 12.96 11.0378 12.7407 10.8913C12.5215 10.7448 12.2637 10.6666 12 10.6666H10.6666ZM10.6666 5.33325H12C12.2637 5.33325 12.5215 5.25505 12.7407 5.10855C12.96 4.96204 13.1309 4.7538 13.2318 4.51016C13.3327 4.26653 13.3591 3.99844 13.3077 3.7398C13.2562 3.48116 13.1293 3.24358 12.9428 3.05711C12.7563 2.87064 12.5187 2.74365 12.2601 2.69221C12.0015 2.64076 11.7334 2.66716 11.4897 2.76808C11.2461 2.869 11.0379 3.03989 10.8914 3.25916C10.7448 3.47843 10.6666 3.73621 10.6666 3.99992V5.33325Z" fill="#E1E4E7"/>
</svg>
