<svg width="21" height="20" viewBox="0 0 21 20" fill="none" xmlns="http://www.w3.org/2000/svg">
<g clip-path="url(#clip0_8260_5107)">
<path fill-rule="evenodd" clip-rule="evenodd" d="M20.5083 10.0042C20.5083 15.5293 16.0293 20.0083 10.5042 20.0083C4.97902 20.0083 0.5 15.5293 0.5 10.0042C0.5 4.47902 4.97902 0 10.5042 0C16.0293 0 20.5083 4.47902 20.5083 10.0042ZM10.854 7.3803C9.87939 7.78846 7.93853 8.62978 5.02308 9.89592C4.55661 10.0875 4.30671 10.2708 4.28172 10.454C4.24483 10.7639 4.63269 10.8843 5.15592 11.0466C5.22343 11.0676 5.2932 11.0892 5.36461 11.1121C5.88106 11.2787 6.56411 11.4703 6.92229 11.4786C7.24715 11.4869 7.60534 11.3536 8.00517 11.0788C10.729 9.23786 12.1285 8.30491 12.2201 8.28825C12.2867 8.27159 12.37 8.25493 12.4283 8.30491C12.4866 8.35489 12.4866 8.45485 12.4783 8.47984C12.4386 8.64543 10.8135 10.154 10.0741 10.8405C9.88357 11.0174 9.75184 11.1397 9.72112 11.1704C9.643 11.2508 9.56345 11.327 9.48695 11.4002C9.00882 11.8578 8.65001 12.2013 9.50455 12.7614C9.89303 13.0179 10.2064 13.2316 10.5149 13.4422C10.8878 13.6966 11.2538 13.9463 11.7369 14.2608C11.8508 14.3355 11.9598 14.413 12.0661 14.4887C12.481 14.7839 12.8555 15.0502 13.3196 15.0105C13.5862 14.9855 13.8611 14.7356 14.0027 13.9859C14.3359 12.2199 14.9856 8.37988 15.1355 6.79721C15.1522 6.66393 15.1355 6.489 15.1189 6.4057C15.1022 6.32241 15.0772 6.21412 14.9773 6.13082C14.8523 6.03086 14.6691 6.0142 14.5858 6.0142C14.2109 6.02253 13.6278 6.22245 10.854 7.3803Z" fill="white"/>
</g>
<defs>
<clipPath id="clip0_8260_5107">
<rect width="20" height="20" fill="white" transform="translate(0.5)"/>
</clipPath>
</defs>
</svg>
