<svg width="20" height="20" viewBox="0 0 20 20" fill="none" xmlns="http://www.w3.org/2000/svg">
<path opacity="0.3" fill-rule="evenodd" clip-rule="evenodd" d="M2.49935 7.5C2.03911 7.5 1.66602 7.8731 1.66602 8.33333C1.66602 8.79357 2.03911 9.16667 2.49935 9.16667H2.64951L3.759 14.7141C3.83062 15.0723 3.89307 15.3846 3.96455 15.6413C4.0407 15.9147 4.14122 16.181 4.31573 16.431C4.57943 16.8087 4.94239 17.1063 5.36454 17.2908C5.64391 17.4129 5.9247 17.4592 6.20776 17.4803C6.47352 17.5 6.792 17.5 7.15725 17.5H12.8415C13.2067 17.5 13.5252 17.5 13.7909 17.4803C14.074 17.4592 14.3548 17.4129 14.6342 17.2908C15.0563 17.1063 15.4193 16.8087 15.683 16.431C15.8575 16.181 15.958 15.9147 16.0341 15.6413C16.1056 15.3846 16.1681 15.0723 16.2397 14.7142L17.3492 9.16667H17.4993C17.9596 9.16667 18.3327 8.79357 18.3327 8.33333C18.3327 7.8731 17.9596 7.5 17.4993 7.5H2.49935ZM7.49935 10C7.95959 10 8.33268 10.3731 8.33268 10.8333V13.3333C8.33268 13.7936 7.95959 14.1667 7.49935 14.1667C7.03911 14.1667 6.66602 13.7936 6.66602 13.3333V10.8333C6.66602 10.3731 7.03911 10 7.49935 10ZM9.99935 10C10.4596 10 10.8327 10.3731 10.8327 10.8333V13.3333C10.8327 13.7936 10.4596 14.1667 9.99935 14.1667C9.53911 14.1667 9.16602 13.7936 9.16602 13.3333V10.8333C9.16602 10.3731 9.53911 10 9.99935 10ZM12.4993 10C12.9596 10 13.3327 10.3731 13.3327 10.8333V13.3333C13.3327 13.7936 12.9596 14.1667 12.4993 14.1667C12.0391 14.1667 11.666 13.7936 11.666 13.3333V10.8333C11.666 10.3731 12.0391 10 12.4993 10Z" fill="white"/>
<path d="M8.24489 3.70619C8.45071 3.29455 8.28386 2.79398 7.87221 2.58816C7.46056 2.38234 6.96 2.54919 6.75418 2.96084L4.25418 7.96084C4.04835 8.37249 4.2152 8.87305 4.62685 9.07887C5.0385 9.2847 5.53906 9.11784 5.74489 8.70619L8.24489 3.70619Z" fill="white"/>
<path d="M13.2449 2.96084C13.0391 2.54919 12.5385 2.38234 12.1269 2.58816C11.7152 2.79398 11.5484 3.29455 11.7542 3.70619L14.2542 8.70619C14.46 9.11784 14.9606 9.2847 15.3722 9.07887C15.7839 8.87305 15.9507 8.37249 15.7449 7.96084L13.2449 2.96084Z" fill="white"/>
</svg>
