<svg width="28" height="28" viewBox="0 0 28 28" fill="none" xmlns="http://www.w3.org/2000/svg">
<path opacity="0.4" d="M22.5631 16.905L21.3964 14.9683C21.1514 14.5366 20.9298 13.72 20.9298 13.2416V10.29C20.9298 6.48663 17.8381 3.3833 14.0231 3.3833C10.2081 3.3833 7.11644 6.48663 7.11644 10.29V13.2416C7.11644 13.72 6.89477 14.5366 6.64977 14.9566L5.47144 16.905C5.00477 17.6866 4.89977 18.55 5.19144 19.3433C5.47144 20.125 6.13644 20.7316 6.99977 21.0233C9.2631 21.7933 11.6431 22.1666 14.0231 22.1666C16.4031 22.1666 18.7831 21.7933 21.0464 21.035C21.8631 20.7666 22.4931 20.1483 22.7964 19.3433C23.0998 18.5383 23.0181 17.6516 22.5631 16.905Z" fill="#C7F284"/>
<path d="M16.6248 3.87325C15.8198 3.55825 14.9448 3.38325 14.0231 3.38325C13.1131 3.38325 12.2381 3.54659 11.4331 3.87325C11.9348 2.92825 12.9264 2.33325 14.0231 2.33325C15.1314 2.33325 16.1114 2.92825 16.6248 3.87325Z" fill="#C7F284"/>
<path d="M17.3016 23.3449C16.8116 24.6983 15.5166 25.6666 14 25.6666C13.0783 25.6666 12.1683 25.2933 11.5266 24.6283C11.1533 24.2783 10.8733 23.8116 10.71 23.3333C10.8616 23.3566 11.0133 23.3683 11.1766 23.3916C11.445 23.4266 11.725 23.4616 12.005 23.4849C12.67 23.5433 13.3466 23.5783 14.0233 23.5783C14.6883 23.5783 15.3533 23.5433 16.0066 23.4849C16.2516 23.4616 16.4966 23.4499 16.73 23.4149C16.9166 23.3916 17.1033 23.3683 17.3016 23.3449Z" fill="#C7F284"/>
</svg>
