<svg width="29" height="28" viewBox="0 0 29 28" fill="none" xmlns="http://www.w3.org/2000/svg">
<path opacity="0.45" d="M14.5 25.6668C20.9433 25.6668 26.1667 20.4435 26.1667 14.0002C26.1667 7.55684 20.9433 2.3335 14.5 2.3335C8.05668 2.3335 2.83334 7.55684 2.83334 14.0002C2.83334 20.4435 8.05668 25.6668 14.5 25.6668Z" fill="white"/>
<path d="M20.1466 15.4819L18.4433 14.5019C18.0583 14.2802 18.0583 13.7202 18.4433 13.4869L20.1466 12.5069C20.8816 12.0869 21.1266 11.1419 20.7066 10.4069C20.2866 9.67186 19.3416 9.42686 18.6066 9.84686L16.9033 10.8269C16.5183 11.0485 16.0283 10.7685 16.0283 10.3252V8.3652C16.0283 7.5252 15.3399 6.8252 14.4883 6.8252C13.6366 6.8252 12.9483 7.51353 12.9483 8.3652V10.3252C12.9483 10.7685 12.4583 11.0602 12.0733 10.8269L10.3699 9.84686C9.63493 9.42686 8.68994 9.67186 8.26994 10.4069C7.84994 11.1419 8.09493 12.0869 8.82993 12.5069L10.5333 13.4869C10.9183 13.7085 10.9183 14.2685 10.5333 14.5019L8.82993 15.4819C8.09493 15.9019 7.84994 16.8469 8.26994 17.5819C8.68994 18.3169 9.63493 18.5619 10.3699 18.1419L12.0733 17.1619C12.4583 16.9402 12.9483 17.2202 12.9483 17.6635V19.6235C12.9483 20.4635 13.6366 21.1635 14.4883 21.1635C15.3399 21.1635 16.0283 20.4752 16.0283 19.6235V17.6635C16.0283 17.2202 16.5183 16.9285 16.9033 17.1619L18.6066 18.1419C19.3416 18.5619 20.2866 18.3169 20.7066 17.5819C21.1383 16.8585 20.8816 15.9135 20.1466 15.4819Z" fill="white"/>
</svg>
