<svg width="21" height="20" viewBox="0 0 21 20" fill="none" xmlns="http://www.w3.org/2000/svg">
<path opacity="0.35" d="M10.5 18.3332C15.1024 18.3332 18.8333 14.6022 18.8333 9.99984C18.8333 5.39746 15.1024 1.6665 10.5 1.6665C5.89763 1.6665 2.16667 5.39746 2.16667 9.99984C2.16667 14.6022 5.89763 18.3332 10.5 18.3332Z" fill="#01040D"/>
<path d="M14.5333 11.0583L13.3166 10.3583C13.0416 10.2 13.0416 9.8 13.3166 9.63333L14.5333 8.93333C15.0583 8.63333 15.2333 7.95833 14.9333 7.43333C14.6333 6.90833 13.9583 6.73333 13.4333 7.03333L12.2166 7.73333C11.9416 7.89167 11.5916 7.69167 11.5916 7.375V5.975C11.5916 5.375 11.1 4.875 10.4916 4.875C9.88328 4.875 9.39162 5.36667 9.39162 5.975V7.375C9.39162 7.69167 9.04162 7.9 8.76662 7.73333L7.54995 7.03333C7.02495 6.73333 6.34996 6.90833 6.04996 7.43333C5.74996 7.95833 5.92495 8.63333 6.44995 8.93333L7.66662 9.63333C7.94162 9.79167 7.94162 10.1917 7.66662 10.3583L6.44995 11.0583C5.92495 11.3583 5.74996 12.0333 6.04996 12.5583C6.34996 13.0833 7.02495 13.2583 7.54995 12.9583L8.76662 12.2583C9.04162 12.1 9.39162 12.3 9.39162 12.6167V14.0167C9.39162 14.6167 9.88328 15.1167 10.4916 15.1167C11.1 15.1167 11.5916 14.625 11.5916 14.0167V12.6167C11.5916 12.3 11.9416 12.0917 12.2166 12.2583L13.4333 12.9583C13.9583 13.2583 14.6333 13.0833 14.9333 12.5583C15.2416 12.0417 15.0583 11.3667 14.5333 11.0583Z" fill="#01040D"/>
</svg>
