<svg width="28" height="28" viewBox="0 0 28 28" fill="none" xmlns="http://www.w3.org/2000/svg">
<path opacity="0.35" d="M14.0002 25.6666C20.4435 25.6666 25.6668 20.4432 25.6668 13.9999C25.6668 7.5566 20.4435 2.33325 14.0002 2.33325C7.55684 2.33325 2.3335 7.5566 2.3335 13.9999C2.3335 20.4432 7.55684 25.6666 14.0002 25.6666Z" fill="#C7F284"/>
<path d="M19.6464 15.4816L17.9431 14.5016C17.5581 14.28 17.5581 13.72 17.9431 13.4866L19.6464 12.5066C20.3814 12.0866 20.6264 11.1416 20.2064 10.4066C19.7864 9.67162 18.8414 9.42662 18.1064 9.84662L16.4031 10.8266C16.0181 11.0483 15.5281 10.7683 15.5281 10.325V8.36495C15.5281 7.52495 14.8398 6.82495 13.9881 6.82495C13.1364 6.82495 12.4481 7.51328 12.4481 8.36495V10.325C12.4481 10.7683 11.9581 11.06 11.5731 10.8266L9.86977 9.84662C9.13477 9.42662 8.18978 9.67162 7.76978 10.4066C7.34978 11.1416 7.59477 12.0866 8.32977 12.5066L10.0331 13.4866C10.4181 13.7083 10.4181 14.2683 10.0331 14.5016L8.32977 15.4816C7.59477 15.9016 7.34978 16.8466 7.76978 17.5816C8.18978 18.3166 9.13477 18.5616 9.86977 18.1416L11.5731 17.1616C11.9581 16.94 12.4481 17.22 12.4481 17.6633V19.6233C12.4481 20.4633 13.1364 21.1633 13.9881 21.1633C14.8398 21.1633 15.5281 20.4749 15.5281 19.6233V17.6633C15.5281 17.22 16.0181 16.9283 16.4031 17.1616L18.1064 18.1416C18.8414 18.5616 19.7864 18.3166 20.2064 17.5816C20.6381 16.8583 20.3814 15.9133 19.6464 15.4816Z" fill="#C7F284"/>
</svg>
