<svg width="28" height="28" viewBox="0 0 28 28" fill="none" xmlns="http://www.w3.org/2000/svg">
<g clip-path="url(#clip0_6650_18011)">
<path d="M14 28C21.732 28 28 21.732 28 14C28 6.26801 21.732 0 14 0C6.26801 0 0 6.26801 0 14C0 21.732 6.26801 28 14 28Z" fill="#141726"/>
<path d="M18.7599 19.9116C16.4219 16.1141 12.9359 13.9616 8.63088 13.0656C7.10838 12.7506 5.57888 12.7541 4.10188 13.3351C3.09038 13.7341 2.93638 14.1541 3.41238 15.2146C6.64638 14.4481 9.65638 15.1621 12.4739 16.7896C15.3124 18.4311 17.4299 20.7166 18.3924 23.9646C19.7434 23.5516 19.9184 23.3241 19.5929 22.0676C19.4004 21.3291 19.1589 20.5591 18.7599 19.9116Z" fill="url(#paint0_linear_6650_18011)"/>
<path d="M21.3183 16.8211C18.3153 12.4461 14.0628 9.99955 8.86526 9.18055C7.48976 8.96355 6.08626 9.02305 4.79826 9.68105C4.18226 9.99605 3.63626 10.3986 3.48926 11.2526C7.54226 10.1361 11.1788 11.1231 14.6018 13.1076C18.0423 15.1026 20.7303 17.7801 21.7768 21.8961C22.5048 21.2521 22.6343 20.4611 22.4453 19.7261C22.1863 18.7181 21.8923 17.6576 21.3183 16.8211Z" fill="url(#paint1_linear_6650_18011)"/>
<path d="M3.6748 17.1009C3.9303 17.6679 4.0983 18.3084 4.4798 18.7669C4.6723 19.0014 5.2568 18.9104 5.6628 18.9664C5.7258 18.9734 5.7888 18.9839 5.8518 18.9909C9.4533 19.5264 12.2953 21.2694 14.3253 24.3109C14.4443 24.4894 14.6368 24.7554 14.7943 24.7554C15.4033 24.7519 16.0158 24.6574 16.6318 24.5979C15.7148 19.5124 8.1478 15.3404 3.6748 17.1009Z" fill="url(#paint2_linear_6650_18011)"/>
<path d="M22.9811 12.8345C20.9966 10.059 18.2596 8.21098 15.1516 6.89498C12.9991 5.98148 10.7696 5.43198 8.40357 5.71548C7.58457 5.81348 6.81807 6.04798 6.18457 6.57998C14.2661 6.78298 20.3456 10.283 24.5246 17.1955C24.5316 16.737 24.6016 16.226 24.4336 15.813C24.0136 14.7875 23.6146 13.72 22.9811 12.8345Z" fill="url(#paint3_linear_6650_18011)"/>
<path d="M24.8428 11.3855C23.1978 5.12396 16.5128 2.11046 11.5708 3.63646C16.8943 4.68646 21.2623 7.22396 24.8428 11.3855Z" fill="url(#paint4_linear_6650_18011)"/>
<path d="M5.43896 20.4366C7.34996 22.8621 9.77896 24.2761 12.894 24.7346C11.704 22.5121 7.51096 20.1076 5.43896 20.4366Z" fill="url(#paint5_linear_6650_18011)"/>
</g>
<defs>
<linearGradient id="paint0_linear_6650_18011" x1="20.1223" y1="4.69457" x2="8.69828" y2="23.0192" gradientUnits="userSpaceOnUse">
<stop offset="0.16" stop-color="#C6F462"/>
<stop offset="0.89" stop-color="#33D9FF"/>
</linearGradient>
<linearGradient id="paint1_linear_6650_18011" x1="20.0404" y1="4.64349" x2="8.61674" y2="22.9681" gradientUnits="userSpaceOnUse">
<stop offset="0.16" stop-color="#C6F462"/>
<stop offset="0.89" stop-color="#33D9FF"/>
</linearGradient>
<linearGradient id="paint2_linear_6650_18011" x1="20.1953" y1="4.74007" x2="8.77167" y2="23.0647" gradientUnits="userSpaceOnUse">
<stop offset="0.16" stop-color="#C6F462"/>
<stop offset="0.89" stop-color="#33D9FF"/>
</linearGradient>
<linearGradient id="paint3_linear_6650_18011" x1="19.916" y1="4.56567" x2="8.49202" y2="22.8903" gradientUnits="userSpaceOnUse">
<stop offset="0.16" stop-color="#C6F462"/>
<stop offset="0.89" stop-color="#33D9FF"/>
</linearGradient>
<linearGradient id="paint4_linear_6650_18011" x1="20.0092" y1="4.62375" x2="8.58521" y2="22.9483" gradientUnits="userSpaceOnUse">
<stop offset="0.16" stop-color="#C6F462"/>
<stop offset="0.89" stop-color="#33D9FF"/>
</linearGradient>
<linearGradient id="paint5_linear_6650_18011" x1="20.2663" y1="4.78423" x2="8.84265" y2="23.1088" gradientUnits="userSpaceOnUse">
<stop offset="0.16" stop-color="#C6F462"/>
<stop offset="0.89" stop-color="#33D9FF"/>
</linearGradient>
<clipPath id="clip0_6650_18011">
<rect width="28" height="28" fill="white"/>
</clipPath>
</defs>
</svg>
