<svg width="25" height="24" viewBox="0 0 25 24" fill="none" xmlns="http://www.w3.org/2000/svg">
<path opacity="0.3" fill-rule="evenodd" clip-rule="evenodd" d="M3.57698 4.63803C3.25 5.27976 3.25 6.11984 3.25 7.8V16.2C3.25 17.8802 3.25 18.7202 3.57698 19.362C3.8646 19.9265 4.32354 20.3854 4.88803 20.673C5.52976 21 6.36984 21 8.05 21H16.45C18.1302 21 18.9702 21 19.612 20.673C20.1765 20.3854 20.6354 19.9265 20.923 19.362C21.25 18.7202 21.25 17.8802 21.25 16.2V7.8C21.25 6.11984 21.25 5.27976 20.923 4.63803C20.6354 4.07354 20.1765 3.6146 19.612 3.32698C18.9702 3 18.1302 3 16.45 3H8.05C6.36984 3 5.52976 3 4.88803 3.32698C4.32354 3.6146 3.8646 4.07354 3.57698 4.63803Z" fill="#C7F284"/>
<path fill-rule="evenodd" clip-rule="evenodd" d="M8.25 9C8.80229 9 9.25 8.55229 9.25 8C9.25 7.44772 8.80229 7 8.25 7C7.69772 7 7.25 7.44772 7.25 8C7.25 8.55229 7.69772 9 8.25 9ZM8.25 13C8.80229 13 9.25 12.5523 9.25 12C9.25 11.4477 8.80229 11 8.25 11C7.69772 11 7.25 11.4477 7.25 12C7.25 12.5523 7.69772 13 8.25 13ZM8.25 17C8.80229 17 9.25 16.5523 9.25 16C9.25 15.4477 8.80229 15 8.25 15C7.69772 15 7.25 15.4477 7.25 16C7.25 16.5523 7.69772 17 8.25 17ZM11.25 7C10.6977 7 10.25 7.44772 10.25 8C10.25 8.55229 10.6977 9 11.25 9H16.25C16.8023 9 17.25 8.55229 17.25 8C17.25 7.44772 16.8023 7 16.25 7H11.25ZM11.25 11C10.6977 11 10.25 11.4477 10.25 12C10.25 12.5523 10.6977 13 11.25 13H16.25C16.8023 13 17.25 12.5523 17.25 12C17.25 11.4477 16.8023 11 16.25 11H11.25ZM11.25 15C10.6977 15 10.25 15.4477 10.25 16C10.25 16.5523 10.6977 17 11.25 17H16.25C16.8023 17 17.25 16.5523 17.25 16C17.25 15.4477 16.8023 15 16.25 15H11.25Z" fill="#C7F284"/>
</svg>
