<svg width="25" height="24" viewBox="0 0 25 24" fill="none" xmlns="http://www.w3.org/2000/svg">
<g opacity="0.4">
<path d="M13.75 7C13.75 4.79086 15.5409 3 17.75 3C19.9591 3 21.75 4.79086 21.75 7C21.75 9.20914 19.9591 11 17.75 11C15.5409 11 13.75 9.20914 13.75 7Z" fill="#C7F284"/>
<path d="M3.75 17C3.75 14.7909 5.54086 13 7.75 13C9.95914 13 11.75 14.7909 11.75 17C11.75 19.2091 9.95914 21 7.75 21C5.54086 21 3.75 19.2091 3.75 17Z" fill="#C7F284"/>
<path d="M13.75 17C13.75 14.7909 15.5409 13 17.75 13C19.9591 13 21.75 14.7909 21.75 17C21.75 19.2091 19.9591 21 17.75 21C15.5409 21 13.75 19.2091 13.75 17Z" fill="#C7F284"/>
</g>
<path fill-rule="evenodd" clip-rule="evenodd" d="M3.75 7C3.75 4.79086 5.54086 3 7.75 3C9.95914 3 11.75 4.79086 11.75 7C11.75 9.20914 9.95914 11 7.75 11C5.54086 11 3.75 9.20914 3.75 7Z" fill="#C7F284"/>
</svg>
