<svg width="25" height="24" viewBox="0 0 25 24" fill="none" xmlns="http://www.w3.org/2000/svg">
<g opacity="0.3">
<path d="M16.75 6C15.0931 6 13.75 7.34315 13.75 9C13.75 10.6569 15.0931 12 16.75 12C18.4069 12 19.75 10.6569 19.75 9C19.75 7.34315 18.4069 6 16.75 6Z" fill="#C7F284"/>
<path d="M16.75 13C15.8335 13 14.968 13.2169 14.1954 13.601C15.1677 14.8031 15.7501 16.3335 15.7501 18V20C15.7501 20.3643 15.6527 20.7058 15.4825 21H21.75C22.3023 21 22.75 20.5523 22.75 20V19C22.75 15.4781 20.0393 13 16.75 13Z" fill="#C7F284"/>
</g>
<path d="M4.75 7C4.75 4.79086 6.54086 3 8.75 3C10.9591 3 12.75 4.79086 12.75 7C12.75 9.20914 10.9591 11 8.75 11C6.54086 11 4.75 9.20914 4.75 7Z" fill="#C7F284"/>
<path d="M2.75 18C2.75 14.6863 5.43629 12 8.75 12C12.0637 12 14.75 14.6863 14.75 18V20C14.75 20.5523 14.3023 21 13.75 21H3.75C3.19772 21 2.75 20.5523 2.75 20V18Z" fill="#C7F284"/>
</svg>
