<svg width="25" height="24" viewBox="0 0 25 24" fill="none" xmlns="http://www.w3.org/2000/svg">
<path opacity="0.4" d="M18.54 13.55C18.12 13.96 17.88 14.55 17.94 15.18C18.03 16.26 19.02 17.05 20.1 17.05H22V18.24C22 20.31 20.31 22 18.24 22H6.76C4.69 22 3 20.31 3 18.24V11.51C3 9.44001 4.69 7.75 6.76 7.75H18.24C20.31 7.75 22 9.44001 22 11.51V12.95H19.98C19.42 12.95 18.91 13.17 18.54 13.55Z" fill="#C7F284"/>
<path d="M15.35 3.94964V7.74962H6.76C4.69 7.74962 3 9.43963 3 11.5096V7.83965C3 6.64965 3.73 5.58961 4.84 5.16961L12.78 2.16961C14.02 1.70961 15.35 2.61963 15.35 3.94964Z" fill="#C7F284"/>
<path d="M23.0598 13.9692V16.0292C23.0598 16.5792 22.6198 17.0292 22.0598 17.0492H20.0998C19.0198 17.0492 18.0298 16.2592 17.9398 15.1792C17.8798 14.5492 18.1198 13.9592 18.5398 13.5492C18.9098 13.1692 19.4198 12.9492 19.9798 12.9492H22.0598C22.6198 12.9692 23.0598 13.4192 23.0598 13.9692Z" fill="#C7F284"/>
<path d="M14.5 12.75H7.5C7.09 12.75 6.75 12.41 6.75 12C6.75 11.59 7.09 11.25 7.5 11.25H14.5C14.91 11.25 15.25 11.59 15.25 12C15.25 12.41 14.91 12.75 14.5 12.75Z" fill="#1B232C"/>
</svg>
