<svg width="20" height="20" viewBox="0 0 20 20" fill="none" xmlns="http://www.w3.org/2000/svg">
<path opacity="0.35" d="M15.8624 6.94091L12.9161 3.99463L4.50724 12.4033L4.50355 12.4072L4.47255 12.4382C3.80589 13.1048 3.42951 13.4812 3.13655 13.9165C2.87672 14.3026 2.66772 14.7206 2.51474 15.1601C2.34225 15.6557 2.267 16.1826 2.1337 17.1159L2.0872 17.4414C2.06806 17.5754 2.11519 17.7103 2.2136 17.8033C2.312 17.8962 2.44941 17.9356 2.58209 17.9088L3.0323 17.8179C3.87084 17.6488 4.34431 17.5533 4.78893 17.3783C5.1834 17.223 5.55828 17.0219 5.90587 16.7793C6.29766 16.5057 6.63917 16.1642 7.24404 15.5593L15.8624 6.94091Z" fill="white"/>
<path d="M17.1606 2.69686C16.347 1.88327 15.0279 1.88327 14.2143 2.69686L12.9165 3.99473L15.8627 6.94101L17.1606 5.64314C17.9742 4.82955 17.9742 3.51046 17.1606 2.69686Z" fill="white"/>
<path d="M10.7767 16.2501C10.3477 16.2501 10 16.6232 10 17.0834C10 17.5437 10.3477 17.9167 10.7767 17.9167H16.99C17.4189 17.9167 17.7667 17.5437 17.7667 17.0834C17.7667 16.6232 17.4189 16.2501 16.99 16.2501H10.7767Z" fill="white"/>
</svg>
