<svg width="20" height="20" viewBox="0 0 20 20" fill="none" xmlns="http://www.w3.org/2000/svg">
<path d="M16.666 2.91602H4.58267C4.32433 2.91602 4.07433 3.04102 3.916 3.24935L2.666 4.91602C2.25767 5.46602 2.64933 6.24935 3.33267 6.24935H15.416C15.6743 6.24935 15.9243 6.12435 16.0827 5.91602L17.3327 4.24935C17.741 3.69935 17.3493 2.91602 16.666 2.91602Z" fill="white"/>
<path opacity="0.4" d="M3.33267 8.33398H15.416C15.6743 8.33398 15.9243 8.45898 16.0827 8.66732L17.3327 10.334C17.741 10.884 17.3493 11.6673 16.666 11.6673H4.58267C4.32433 11.6673 4.07433 11.5423 3.916 11.334L2.666 9.66732C2.25767 9.11732 2.64933 8.33398 3.33267 8.33398Z" fill="white"/>
<path d="M16.666 13.75H4.58267C4.32433 13.75 4.07433 13.875 3.916 14.0833L2.666 15.75C2.25767 16.3 2.64933 17.0833 3.33267 17.0833H15.416C15.6743 17.0833 15.9243 16.9583 16.0827 16.75L17.3327 15.0833C17.741 14.5333 17.3493 13.75 16.666 13.75Z" fill="white"/>
</svg>
