<svg width="20" height="20" viewBox="0 0 20 20" fill="none" xmlns="http://www.w3.org/2000/svg">
<path opacity="0.3" fill-rule="evenodd" clip-rule="evenodd" d="M2.77248 3.86502C2.5 4.3998 2.5 5.09987 2.5 6.5V13.5C2.5 14.9001 2.5 15.6002 2.77248 16.135C3.01217 16.6054 3.39462 16.9878 3.86502 17.2275C4.3998 17.5 5.09987 17.5 6.5 17.5H13.5C14.9001 17.5 15.6002 17.5 16.135 17.2275C16.6054 16.9878 16.9878 16.6054 17.2275 16.135C17.5 15.6002 17.5 14.9001 17.5 13.5V6.5C17.5 5.09987 17.5 4.3998 17.2275 3.86502C16.9878 3.39462 16.6054 3.01217 16.135 2.77248C15.6002 2.5 14.9001 2.5 13.5 2.5H6.5C5.09987 2.5 4.3998 2.5 3.86502 2.77248C3.39462 3.01217 3.01217 3.39462 2.77248 3.86502Z" fill="white"/>
<path fill-rule="evenodd" clip-rule="evenodd" d="M6.66659 7.50016C7.12682 7.50016 7.49992 7.12707 7.49992 6.66683C7.49992 6.20659 7.12682 5.8335 6.66659 5.8335C6.20635 5.8335 5.83325 6.20659 5.83325 6.66683C5.83325 7.12707 6.20635 7.50016 6.66659 7.50016ZM6.66659 10.8335C7.12682 10.8335 7.49992 10.4604 7.49992 10.0002C7.49992 9.53993 7.12682 9.16683 6.66659 9.16683C6.20635 9.16683 5.83325 9.53993 5.83325 10.0002C5.83325 10.4604 6.20635 10.8335 6.66659 10.8335ZM6.66659 14.1668C7.12682 14.1668 7.49992 13.7937 7.49992 13.3335C7.49992 12.8733 7.12682 12.5002 6.66659 12.5002C6.20635 12.5002 5.83325 12.8733 5.83325 13.3335C5.83325 13.7937 6.20635 14.1668 6.66659 14.1668ZM9.16659 5.8335C8.70635 5.8335 8.33325 6.20659 8.33325 6.66683C8.33325 7.12707 8.70635 7.50016 9.16659 7.50016H13.3333C13.7935 7.50016 14.1666 7.12707 14.1666 6.66683C14.1666 6.20659 13.7935 5.8335 13.3333 5.8335H9.16659ZM9.16659 9.16683C8.70635 9.16683 8.33325 9.53993 8.33325 10.0002C8.33325 10.4604 8.70635 10.8335 9.16659 10.8335H13.3333C13.7935 10.8335 14.1666 10.4604 14.1666 10.0002C14.1666 9.53993 13.7935 9.16683 13.3333 9.16683H9.16659ZM9.16659 12.5002C8.70635 12.5002 8.33325 12.8733 8.33325 13.3335C8.33325 13.7937 8.70635 14.1668 9.16659 14.1668H13.3333C13.7935 14.1668 14.1666 13.7937 14.1666 13.3335C14.1666 12.8733 13.7935 12.5002 13.3333 12.5002H9.16659Z" fill="white"/>
</svg>
