<svg width="20" height="20" viewBox="0 0 20 20" fill="none" xmlns="http://www.w3.org/2000/svg">
<path opacity="0.4" d="M18.3334 7.67513V12.3251C18.3334 15.7418 17.2917 16.7835 13.875 16.7835H8.25838V14.2668C8.25838 13.9501 7.99172 13.6835 7.67505 13.6835V6.3168C7.99172 6.3168 8.25838 6.05013 8.25838 5.73346V3.2168H13.875C17.2917 3.2168 18.3334 4.25846 18.3334 7.67513Z" fill="white"/>
<path d="M15.3917 9.91689C15.5333 9.78356 15.5833 9.57523 15.525 9.39189C15.4667 9.20023 15.3083 9.06689 15.1083 9.04189L14.0417 8.88356C14 8.87523 13.9667 8.85023 13.95 8.81689L13.475 7.85023C13.3917 7.67523 13.2083 7.56689 13.0167 7.56689C12.8167 7.56689 12.6417 7.67523 12.55 7.85023L12.075 8.81689C12.0583 8.85856 12.0167 8.88356 11.975 8.88356L10.9083 9.04189C10.7167 9.06689 10.55 9.20856 10.4917 9.39189C10.4333 9.58356 10.4833 9.78356 10.625 9.91689L11.4 10.6669C11.4333 10.6919 11.4417 10.7419 11.4333 10.7836L11.25 11.8419C11.2167 12.0336 11.2917 12.2336 11.4583 12.3419C11.55 12.4086 11.65 12.4419 11.7583 12.4419C11.8417 12.4419 11.925 12.4252 12 12.3836L12.9583 11.8836C12.9917 11.8669 13.0417 11.8669 13.075 11.8836L14.0333 12.3836C14.2083 12.4752 14.4167 12.4586 14.575 12.3419C14.7333 12.2252 14.8167 12.0336 14.7833 11.8336L14.6 10.7752C14.5917 10.7336 14.6083 10.6919 14.6333 10.6586L15.3917 9.91689Z" fill="white"/>
<path d="M7.67502 6.3168V13.6835C7.35835 13.6835 7.09168 13.9501 7.09168 14.2668V16.7835H6.12502C2.83335 16.7835 1.75002 15.8001 1.67502 12.7335C1.66668 12.5751 1.73335 12.4251 1.84168 12.3168C1.95002 12.2001 2.10835 12.1418 2.25835 12.1418C3.42502 12.1418 4.38335 11.1835 4.38335 10.0085C4.38335 8.83346 3.42502 7.8668 2.25835 7.8668C2.09168 7.8668 1.95002 7.80846 1.84168 7.6918C1.73335 7.58346 1.66668 7.42513 1.67502 7.27513C1.75002 4.20013 2.83335 3.2168 6.12502 3.2168H7.09168V5.73346C7.09168 6.05846 7.35835 6.3168 7.67502 6.3168Z" fill="white"/>
</svg>
