<svg width="99" height="98" viewBox="0 0 99 98" fill="none" xmlns="http://www.w3.org/2000/svg">
<path d="M84.6845 29.0122C84.6845 29.0122 80.977 32.3271 74.585 37.5109C68.193 42.6948 61.5853 46.6428 61.5853 46.6428L55.3979 50.165L48.0078 53.9942L41.9642 56.8694L36.1334 59.5098L32.6968 61.0414L25.2045 63.4743C25.2045 63.4743 30.8721 69.894 42.777 71.2874C54.6818 72.6808 61.0849 68.3015 68.3782 64.2346C75.6715 60.1677 80.5374 50.9253 82.3594 46.5239C84.1813 42.1225 84.0016 37.9975 84.0016 37.9975C84.0016 37.9975 85.1517 29.3329 84.6873 29.015L84.6845 29.0122Z" fill="#6FE5C3"/>
<path d="M65.1214 47.5413C65.1214 47.5413 45.2072 62.0561 28.3977 63.831L37.1121 68.0721C37.1121 68.0721 36.7001 65.5534 39.2575 64.995C41.8148 64.4365 43.5622 64.1324 44.5326 65.2217C45.503 66.3137 44.7206 69.2195 44.7206 69.2195C44.7206 69.2195 47.2558 70.4525 57.3581 67.627C67.4576 64.8042 75.0467 55.1941 75.0467 55.1941C75.0467 55.1941 65.243 60.6903 61.6627 60.6212C58.0824 60.5548 53.8109 59.4379 53.8109 59.4379L65.1214 47.5386V47.5413Z" fill="#00A9B8"/>
<path d="M64.3914 20.6351C64.3914 20.6351 76.6419 16.2226 82.4284 15.7001C88.2149 15.1776 90.4212 15.9738 90.6783 19.3108C90.9354 22.6478 84.7287 28.7717 84.7287 28.7717C84.7287 28.7717 80.1254 33.3943 74.2089 37.8178C68.2924 42.2414 58.3478 48.4869 58.3478 48.4869L45.138 55.3599L31.4886 61.6745C31.4886 61.6745 21.7043 64.5968 17.9221 65.2963C14.14 65.9958 8.40875 65.2991 8.67693 61.8321C8.94511 58.3624 14.1732 52.8523 14.1732 52.8523L21.2647 45.7028L25.9149 42.8247L64.3914 20.6351Z" fill="#DE37C3"/>
<path d="M45.7905 53.1728C45.7905 53.1728 25.3952 63.1949 16.15 62.8687C12.5006 62.7387 10.1755 62.1167 8.7793 61.1684C9.57 57.7042 14.1705 52.8521 14.1705 52.8521L21.262 45.7026L25.9122 42.8245L31.6241 39.5317C34.2782 40.4662 36.4624 41.2763 36.443 41.4007C36.396 41.7214 38.9257 46.6094 38.9257 46.6094C38.9257 46.6094 34.4939 49.2746 33.7308 51.4476C32.9678 53.6207 33.7612 55.5892 33.7612 55.5892L45.7905 53.1728Z" fill="#FFA7FF"/>
<path d="M71.1401 19.8884C71.1401 19.8884 82.6496 16.1809 86.993 17.1098C91.3364 18.0388 81.5769 27.3807 81.5769 27.3807L74.0569 33.9138L67.9718 38.6442C67.9718 38.6442 75.0605 28.6249 75.3425 27.4333C75.6245 26.2444 74.4771 21.1436 73.927 20.9224C73.3795 20.704 66.5535 21.2486 66.5535 21.2486L71.1401 19.8856V19.8884Z" fill="#AA21A3"/>
<path d="M68.6381 25.1774C68.6381 25.1774 54.6763 11.2847 45.879 9.9051C37.0816 8.52275 31.8287 9.80281 27.8309 17.1431C23.8331 24.4834 24.4165 32.7997 24.4165 32.7997L25.456 42.1306L26.8964 48.2517C26.8964 48.2517 36.3822 49.681 51.4139 40.3501C65.185 31.8016 69.8048 26.1312 68.6381 25.1774Z" fill="#B6E0F9"/>
<path d="M63.7777 24.644C63.7777 24.644 56.3627 16.9526 50.5596 14.2901C44.7537 11.6277 38.5746 10.7485 38.5746 10.7485C38.5746 10.7485 50.2361 16.0817 51.8037 17.8953C53.3713 19.709 56.8162 25.2882 56.2439 27.0907C55.6716 28.8933 53.3437 35.6061 53.3437 35.6061C53.3437 35.6061 64.1454 27.8732 63.7777 24.644Z" fill="#FDFFFF"/>
<path d="M39.3653 77.3947C39.3653 77.3947 40.156 79.0397 39.8325 79.4517C39.5063 79.8636 38.5137 80.6985 37.5765 80.2037C36.6393 79.706 36.2495 79.3189 36.3822 78.4453C36.5149 77.5716 37.2254 77.2039 37.2807 77.2012C37.3332 77.1956 37.8447 77.0353 37.8447 77.0353C37.8447 77.0353 38.6133 68.7107 38.6243 68.6333C38.6354 68.5559 38.8704 66.5653 38.8704 66.5653C38.8704 66.5653 39.697 66.1368 40.7642 66.2971C41.8314 66.4575 42.8654 67.0215 42.8101 67.3809C42.7548 67.7403 42.5032 69.0701 42.5032 69.0701C42.5032 69.0701 39.744 76.7284 39.7385 76.7671C39.733 76.8058 39.368 77.3947 39.368 77.3947H39.3653Z" fill="#FFE36E"/>
<path opacity="0.58" d="M41.5799 66.5378C41.5799 66.5378 40.474 67.2511 40.4242 67.3921L40.3744 67.5358L42.5586 68.4648C42.5586 68.4648 41.1845 68.545 41.0131 68.7302C40.8389 68.9154 38.4198 77.6243 38.4198 77.6243L39.6335 77.8786C39.6335 77.8786 39.404 78.6776 39.6224 78.802C39.8409 78.9265 38.9202 78.2795 38.2152 78.2629C37.5102 78.2463 36.4237 78.8269 36.4237 78.8269C36.4237 78.8269 35.6634 78.3321 36.3794 77.804C37.0955 77.2759 37.8226 77.1322 37.8834 76.8502C37.9443 76.5682 38.8677 66.5627 38.8677 66.5627C38.8677 66.5627 39.7137 66.2724 40.2141 66.3304C40.7145 66.3885 41.5799 66.535 41.5799 66.535V66.5378Z" fill="#E2901A"/>
<path d="M87.3303 52.1417C87.3303 52.1417 88.262 51.5445 89.3181 52.0477C90.3742 52.5481 89.5503 54.5276 88.8951 54.8511C88.2399 55.1746 87.4768 55.0059 87.3358 54.9064C87.192 54.8068 86.4096 53.7148 86.4096 53.7148C86.2659 53.6153 76.6364 50.6902 76.5452 50.5989C76.4539 50.5049 75.8761 50.4994 76.2687 49.294C76.6613 48.0914 77.2888 47.0546 77.2888 47.0546L78.2897 46.521L79.003 47.0242L86.6502 51.7795L87.3303 52.1444V52.1417Z" fill="#FFE36E"/>
<path opacity="0.58" d="M89.9983 53.4523C89.9983 53.4523 89.437 54.2928 88.3726 53.8781C87.311 53.4634 87.1755 52.4266 87.1755 52.4266L86.606 51.9953L86.0779 52.4957C86.0779 52.4957 78.1404 49.7587 77.7948 49.5237C77.4492 49.2914 76.9903 47.7515 76.9903 47.7515C76.9903 47.7515 76.6889 48.1772 76.5839 48.6334C76.4788 49.0896 75.9895 49.8139 76.2273 50.1595C76.465 50.5051 76.7857 50.6599 76.7857 50.6599L86.476 53.9168C86.476 53.9168 86.8355 55.5148 88.251 55.1471C89.6665 54.7794 90.1393 53.8172 89.9955 53.4495L89.9983 53.4523Z" fill="#E2901A"/>
<path d="M68.5828 25.2382C66.3682 23.0596 64.0542 20.9972 61.6406 19.048C58.0105 16.1755 54.2173 13.4191 49.9763 11.5363C48.569 10.9308 47.1203 10.4138 45.6218 10.2231C42.6138 9.82773 39.4869 9.55954 36.5287 10.2839C30.3993 11.7326 27.3222 18.1633 25.9343 23.7895C25.3261 26.3801 25.0164 29.0508 25.0358 31.7132C24.9418 31.9067 26.1168 41.5113 26.1914 42.0477L26.1776 41.962L27.6816 48.0692L27.0181 47.4582C27.9691 47.5439 28.981 47.5246 29.9431 47.4417C40.9191 46.4021 51.4775 39.9548 60.4379 33.8337C62.9455 32.0339 65.4393 30.1428 67.4686 27.8039C67.9109 27.2426 69.1081 25.8686 68.5855 25.241H68.5828V25.2382ZM68.6934 25.1166C70.1587 26.8003 62.2212 33.2144 60.8278 34.3507C51.8646 41.3869 41.7402 48.1688 30.0593 49.0867C28.7847 49.1779 27.513 49.1751 26.2357 48.9705L26.114 48.4342L24.7399 42.2965L24.7289 42.2468V42.2108C24.6764 41.4699 23.6147 32.1556 23.7419 31.7187C23.7612 28.954 24.1234 26.1948 24.798 23.5103C26.3407 17.5523 29.7994 10.8507 36.3213 9.41854C37.8834 9.05636 39.4842 8.95408 41.0573 9.01767C43.4156 9.16696 45.7932 9.36048 48.0354 10.1125C50.2583 10.8755 52.3318 12.0561 54.2947 13.3196C59.4924 16.7423 64.2007 20.834 68.6961 25.1138H68.6934V25.1166Z" fill="black"/>
<path d="M81.5659 48.1136C83.0395 44.948 83.8772 41.4645 83.7832 37.9671C84.0735 35.3572 84.3887 32.739 84.4716 30.1153C84.4716 29.8084 84.4854 29.4905 84.4191 29.203C84.4191 29.203 84.4246 29.2195 84.4301 29.2251C84.4357 29.2334 84.4661 29.2748 84.4937 29.2887L84.9001 29.261C82.998 30.9862 81.071 32.6671 79.1219 34.3287C73.7832 38.9403 68.1764 43.2753 62.1797 47.0105C60.25 48.1523 57.4631 49.7779 55.5195 50.8921C54.4247 51.4727 51.5494 53.0099 50.4242 53.6126C44.762 56.6455 38.8483 59.2526 32.9567 61.7657C30.7228 62.4707 27.6512 63.3776 25.3925 64.066L25.6662 63.0624C26.0201 63.4688 26.4652 63.8918 26.8992 64.2816C28.4613 65.6585 30.2169 66.8362 32.0554 67.8232C33.8995 68.8434 35.8928 69.6258 37.889 70.2921L37.8475 70.4497C37.2558 70.3087 36.6559 70.1843 36.0642 70.0239C34.6128 69.6175 33.1088 69.1033 31.7292 68.4868C28.8871 67.2122 26.2025 65.5175 24.0709 63.2089C26.5149 62.3602 30.239 61.0469 32.3789 60.3364C46.1914 53.9582 60.4988 47.8316 72.5916 38.4537C76.6862 35.2826 80.7227 31.9677 84.6596 28.5947L84.867 28.7412C84.9084 28.7717 84.9637 28.827 84.9776 28.8546C85.055 28.968 85.0743 29.1145 85.0909 29.2361C85.1628 30.6766 84.9361 32.1059 84.7951 33.5325C84.6209 35.0337 84.4219 36.5294 84.209 38.0224C84.2173 39.6038 83.9712 41.5723 83.551 43.2394C83.1473 44.9591 82.4672 46.593 81.7124 48.1799L81.5631 48.1108H81.5659V48.1136Z" fill="black"/>
<path d="M42.7852 71.2043C50.4241 71.8955 57.0373 70.115 63.551 66.1864C66.6364 64.3506 69.802 62.6392 72.434 60.1399C75.0798 57.7485 77.3358 54.898 79.5614 51.9702L79.7024 52.0532C78.627 54.616 77.17 57.0296 75.442 59.2193C73.6616 61.4255 71.5852 63.4051 69.0611 64.7708C67.4188 65.6417 65.8263 66.4877 64.1786 67.3392C59.2961 69.9519 53.8607 71.8374 48.2677 71.7711C46.4208 71.8153 44.5823 71.6052 42.7659 71.3674L42.7852 71.2043Z" fill="black"/>
<path d="M64.361 20.5578C67.2419 19.51 70.1448 18.5341 73.0782 17.6438C76.0254 16.7702 78.9781 15.9076 82.0386 15.5067C84.3278 15.2993 87.5377 14.8791 89.5282 16.231C90.7171 17.0771 91.1401 18.7386 90.9603 20.1404C90.4848 22.4904 88.9504 24.4146 87.5321 26.2504C85.6051 28.6612 83.3242 30.7624 81.0378 32.8221C74.1896 39.0151 66.3848 44.0137 58.663 49.0316C58.6464 49.0648 45.4145 56.0236 45.3924 56.054C41.9669 57.6658 35.1712 60.9088 31.7264 62.4847C28.0438 63.5961 24.3557 64.6191 20.6178 65.5425C18.7295 66.0152 16.7112 66.4106 14.7372 66.3138C9.37367 66.0788 5.99242 63.6957 9.3239 58.2436C10.5957 56.1037 12.1439 54.268 13.8331 52.493C14.4303 51.9014 16.2937 50.1209 16.9296 49.4961C18.3203 48.1497 19.722 46.8143 21.1292 45.4872C22.3208 44.7961 24.6764 43.4331 25.8707 42.7585L25.9564 42.8967C24.8367 43.6542 22.5282 45.1748 21.3974 45.9213C19.7469 47.7239 17.3858 50.2011 15.5335 52.1447C13.5899 54.138 11.7679 56.4493 10.4326 58.8685C9.58379 60.4416 8.79861 62.3935 9.91832 63.3666C11.2011 64.5168 13.095 64.702 14.7787 64.7628C16.6504 64.8154 18.4087 64.4007 20.2279 63.9445C23.7115 63.0985 28.1018 61.752 31.1347 60.9143C34.5298 59.3523 41.3421 56.2669 44.7454 54.7324L58.0575 47.9313C65.5499 43.1925 73.6284 38.1635 80.4379 32.1447C82.7215 30.1403 84.9858 28.1 86.9294 25.7555C87.8971 24.5943 88.8122 23.3778 89.5282 22.0701C90.1448 20.9421 90.5761 19.7256 90.225 18.4594C90.1945 18.2355 90.0978 18.0364 90.0342 17.8263L89.9761 17.7102L89.86 17.4779C89.6001 17.0356 89.202 16.6679 88.7348 16.4439C86.6917 15.5316 84.2974 15.8274 82.0995 15.985C80.5955 16.1453 79.097 16.4467 77.6123 16.7978C73.1501 17.8567 68.7652 19.2363 64.4274 20.7182L64.3721 20.5634L64.361 20.5578Z" fill="black"/>
<path d="M39.4483 77.4003C39.4483 77.4003 39.4538 77.3865 39.4483 77.381C39.4483 77.3782 39.4538 77.3893 39.4538 77.392L39.4704 77.4252L39.5036 77.4916C39.5506 77.5856 39.6473 77.7929 39.6916 77.8869C39.8768 78.3542 40.1256 78.8435 40.0482 79.3633C40.0344 79.4711 39.9431 79.5983 39.8657 79.6812C39.263 80.4028 38.1848 80.9115 37.2863 80.3558C36.8024 80.107 36.291 79.7946 36.0974 79.2333C35.8928 78.5449 36.0615 77.804 36.5398 77.2621C36.6974 77.0851 36.8771 76.9303 37.0955 76.8253C37.3028 76.7645 37.5074 76.6898 37.712 76.6207L37.4134 76.9884C37.5655 74.4504 37.748 71.6304 37.9249 69.0758C37.983 68.1551 38.0963 67.0133 38.1654 66.0927L38.5276 65.9047C39.6473 65.3268 40.9744 65.3489 42.1328 65.7996C42.9069 66.0899 43.8912 66.6981 43.6119 67.699C43.5179 68.2353 43.4018 68.7661 43.294 69.2969C43.023 69.9909 42.7383 70.6793 42.4507 71.3705C41.7291 73.0625 40.9495 74.7877 40.109 76.4382C40.0593 76.535 39.9404 76.7534 39.9044 76.8584C39.8409 76.969 39.6943 77.1183 39.6197 77.2179C39.5754 77.2676 39.4925 77.3699 39.4483 77.4197C39.4344 77.4363 39.4538 77.4086 39.4483 77.3948V77.4003ZM39.2852 77.392C39.3598 77.1764 39.4842 76.9193 39.5589 76.7009C39.5589 76.7009 39.545 76.7313 39.5478 76.7368C39.5616 76.6732 39.6114 76.4354 39.6252 76.3663C40.1892 73.8145 40.9163 71.2792 41.7264 68.791L41.6932 68.9154C41.7706 68.4233 41.8425 67.9312 41.9337 67.4446L41.9669 67.2621C41.9724 67.24 41.9614 67.2925 41.9586 67.3091C41.9448 67.4114 41.989 67.5884 42.0305 67.6464C42.083 67.7266 42.0526 67.6685 41.9946 67.6326C41.2011 67.1156 40.1063 66.8695 39.2077 67.2179L39.6003 66.6511C39.4676 67.5248 39.3128 68.4095 39.2188 69.2721C38.923 71.799 38.5884 74.561 38.2733 77.0741L38.2373 77.3727C37.9443 77.4501 37.6263 77.5358 37.336 77.6022C37.3084 77.6077 37.3499 77.6022 37.3664 77.5994C37.383 77.5966 37.4024 77.5911 37.4162 77.5828C37.3194 77.6215 37.2005 77.7155 37.1148 77.7957C36.7112 78.1744 36.5121 78.9734 36.9379 79.4047C37.8973 80.353 38.7571 80.3226 39.7026 79.3412C39.7303 79.2969 39.7524 79.2389 39.7551 79.1697C39.7745 78.7633 39.628 78.3514 39.5036 77.9616C39.4676 77.8676 39.3902 77.6492 39.3543 77.5607C39.3349 77.5054 39.299 77.4473 39.2934 77.3893H39.2852V77.392Z" fill="black"/>
<path d="M87.3275 52.0587C87.3275 52.0587 87.2888 52.067 87.3026 52.0587L87.3164 52.0504L87.3468 52.0311C88.1071 51.5915 89.3817 51.5113 89.8904 52.3656C90.2138 53.1093 89.9374 53.9525 89.5337 54.5995C89.2324 55.1441 88.4914 55.3819 87.9081 55.3598C87.6399 55.3432 87.2805 55.3377 87.0455 55.1137C86.6971 54.746 86.393 54.3396 86.0806 53.947L86.1774 54.041C86.1497 54.0576 86.1193 54.041 86.0668 54.0244C84.2199 53.4936 81.2755 52.6835 79.3983 52.1527C78.8371 51.9924 77.3524 51.5721 76.8078 51.4118C76.5534 51.3344 76.2631 51.268 76.0475 51.0911C76.0668 51.1132 76.1332 51.1712 76.1774 51.1934C76.1829 51.1961 76.1166 51.1685 76.053 51.1353C75.2678 50.7289 75.3286 49.717 75.5443 49.0479C75.7986 48.1909 76.1221 47.3974 76.5672 46.6122L76.6778 46.4215C77.2252 46.1201 77.8114 45.7966 78.3698 45.5146C79.1882 46.1505 80.0784 46.7007 80.9521 47.2951C83.1334 48.7632 85.301 50.3999 87.3247 52.056H87.3275V52.0587ZM87.333 52.2218C85.6272 51.6495 84.0402 50.7372 82.4395 49.9244C80.8664 49.0618 79.2683 48.2517 77.7975 47.2149L78.6905 47.2702C78.3588 47.4527 78.0215 47.6186 77.6842 47.7955L78.0076 47.4886C77.6289 48.1079 77.2556 48.824 76.9902 49.5207C76.9488 49.6424 76.8713 49.8635 76.8658 49.9631C76.8547 50.0322 76.8741 50.0377 76.8188 49.9575C76.7912 49.9216 76.7442 49.8884 76.7386 49.8939C76.7386 49.8967 76.7442 49.8995 76.8161 49.9354C76.8879 49.9714 76.9792 50.0377 77.04 50.0958C77.0262 50.0736 77.0096 50.0515 76.9875 50.0322C76.9571 49.9962 76.8575 49.9686 76.9267 49.9935L77.0262 50.0322C79.3402 50.8588 82.5141 51.9011 84.8393 52.7167C85.2263 52.8522 85.9451 53.1038 86.3267 53.242C86.4262 53.2752 86.5865 53.3471 86.6888 53.4051C86.9432 53.7867 87.2003 54.1709 87.474 54.5359L87.5404 54.6161C87.5404 54.6161 87.4989 54.5967 87.5293 54.6133C88.0353 54.7875 88.7596 54.7737 89.0914 54.2843C89.484 53.7507 89.9401 52.6946 89.2711 52.2191C88.6932 51.8652 87.9164 51.9205 87.3275 52.2191H87.333V52.2218Z" fill="black"/>
<path d="M7.32569 8.93548L4.47568 10.9401L7.69715 9.61648L6.43119 16.8728L9.27265 10.0776L11.2751 12.9255L9.95367 9.70402L17.2078 10.97L10.4126 8.12851L13.2627 6.12604L10.0412 7.44965L11.305 0.193359L8.46568 6.98852L6.46321 4.13852L7.78467 7.36211L0.530518 6.09615L7.32569 8.93548Z" fill="white"/>
<path d="M55.2971 82.5941C56.5657 82.5941 57.5942 81.5657 57.5942 80.2971C57.5942 79.0284 56.5657 78 55.2971 78C54.0284 78 53 79.0284 53 80.2971C53 81.5657 54.0284 82.5941 55.2971 82.5941Z" fill="white"/>
</svg>
