<svg width="20" height="20" viewBox="0 0 20 20" fill="none" xmlns="http://www.w3.org/2000/svg">
<path opacity="0.4" d="M14.566 8.79101C14.216 9.13267 14.016 9.62434 14.066 10.1493C14.141 11.0493 14.966 11.7077 15.866 11.7077H17.4993V12.916C17.4993 15.416 15.8327 17.0827 13.3327 17.0827H5.83268C3.33268 17.0827 1.66602 15.416 1.66602 12.916V7.08268C1.66602 4.81602 3.03268 3.23268 5.15768 2.96601C5.37435 2.93268 5.59935 2.91602 5.83268 2.91602H13.3327C13.5493 2.91602 13.7577 2.92434 13.9577 2.95767C16.1077 3.20767 17.4993 4.79935 17.4993 7.08268V8.29103H15.766C15.2993 8.29103 14.8743 8.47434 14.566 8.79101Z" fill="white"/>
<path d="M18.3329 9.14098V10.8577C18.3329 11.316 17.9662 11.691 17.4995 11.7077H15.8662C14.9662 11.7077 14.1412 11.0493 14.0662 10.1493C14.0162 9.62433 14.2162 9.13266 14.5662 8.791C14.8745 8.47433 15.2995 8.29102 15.7662 8.29102H17.4995C17.9662 8.30768 18.3329 8.68265 18.3329 9.14098Z" fill="white"/>
</svg>
